# xmcd
#
# Track frame offsets:
#	150
#	20407
#	36957
#	53834
#	70879
#	94652
#	109884
#	125967
#	144990
#	162485
#	180360
#	199020
#	217504
#
# Disc length: 3161 seconds
#
# Revision: 1
# Processed by: cddbd v1.5.2PL0 Copyright (c) Steve Scherf et al.
# Submitted via: audiograbber 1.83.01
#
DISCID=b30c570d
DTITLE=Tim McGraw - Let it Go
DYEAR=2007
DGENRE=Country
TTITLE0=Last Dollar (Fly Away)
TTITLE1=I'm Workin'
TTITLE2=Let it Go
TTITLE3=Whiskey and You
TTITLE4=Suspicions
TTITLE5=Kristofferson
TTITLE6=Put Your Lovin' on Me
TTITLE7=Nothin' to Die For
TTITLE8=Between the River and Me
TTITLE9=Train #10
TTITLE10=I Need You (With Faith Hill)
TTITLE11=Comin' Home
TTITLE12=Shotgun Rider
EXTD=
EXTT0=
EXTT1=
EXTT2=
EXTT3=
EXTT4=
EXTT5=
EXTT6=
EXTT7=
EXTT8=
EXTT9=
EXTT10=
EXTT11=
EXTT12=
PLAYORDER=
